# xmcd CD database file
#
# Track frame offsets:
#	150
#	13632
#	28122
#	43252
#	58815
#	71410
#	84662
#	100126
#	112974
#	127054
#	141284
#	154901
#	170394
#	185879
#	200126
#	212495
#	226615
#	241534
#	255510
#	269428
#	284566
#	299720
#	314295
#	328599
#
# Disc length: 4590 seconds
#
# Revision: 2
# Processed by: cddbd v1.5.2PL0 Copyright (c) Steve Scherf et al.
# Submitted via: CDex 1.83
#
DISCID=6d11ec18
DTITLE=Bessie Smith - The Antholgy CD01
DYEAR=2010
DGENRE=Blues
TTITLE0=Nobody Knows You When You're Down and Out
TTITLE1=Gin Hoouse Blues
TTITLE2=Send Me To The 'lectric Chair
TTITLE3=T'Ain't Nobody's Business If I Do
TTITLE4=I Need A Little Sugar In My Bowl
TTITLE5=After You've Gone
TTITLE6=Careless Love Blues
TTITLE7=Preachin' The Blues
TTITLE8=Black Mountain Blues
TTITLE9=Sinful Blues
TTITLE10=Homeless Blues
TTITLE11=Downhearted Blues
TTITLE12=Any Woman's Blues
TTITLE13=He's Gone Blues
TTITLE14=Graveyard Dream Blues
TTITLE15=Lady Luck Blues
TTITLE16=The Bye Bye Blues 
TTITLE17=House Rent Blues
TTITLE18=Woman's Trouble Blues
TTITLE19=Work House Blues
TTITLE20=I Ain't Gonna Play No Second Fiddle
TTITLE21=Love Me Daddy Blues
TTITLE22=St Louis Blues
TTITLE23=Gimme A Pigfoot (And A Bottle Of Beer)
EXTD=YEAR: 2010
EXTT0=
EXTT1=
EXTT2=
EXTT3=
EXTT4=
EXTT5=
EXTT6=
EXTT7=
EXTT8=
EXTT9=
EXTT10=
EXTT11=
EXTT12=
EXTT13=
EXTT14=
EXTT15=
EXTT16=
EXTT17=
EXTT18=
EXTT19=
EXTT20=
EXTT21=
EXTT22=
EXTT23=
PLAYORDER=
